Coordinates
version=1
nRows=32
nColumns=12
inDegrees=yes

Units are S.I. units (second, meters, Newtons, ...)
Angles are in degrees

endheader
time	SC_y	SC_z	SC_x	AC_y	AC_z	AC_x	GH_y	GH_z	GH_yy	EL_x	PS_y
       0.0              -51.31          28.92          29.65          67.77          5.879         -3.081          92.76          61.65          118.1          126.8          27.47
   0.02448               -51.3          28.92          29.65          67.77          5.877         -3.081          92.78          61.63          118.1          126.8          27.49
   0.04897               -51.3          28.92          29.64          67.77          5.876         -3.081          92.79          61.62          118.1          126.8          27.51
   0.07345               -51.3          28.92          29.64          67.77          5.874         -3.081           92.8          61.61          118.1          126.8          27.53
   0.09794              -51.29          28.92          29.64          67.77          5.872         -3.081          92.82          61.59          118.1          126.8          27.55
    0.1224              -51.29          28.92          29.63          67.76           5.87          -3.08          92.83          61.58          118.1          126.8          27.58
    0.1469              -51.29          28.93          29.63          67.76          5.868          -3.08          92.85          61.56          118.1          126.8           27.6
    0.1714              -51.28          28.93          29.62          67.76          5.866          -3.08          92.87          61.55          118.1          126.7          27.63
    0.1959              -51.28          28.93          29.62          67.76          5.864          -3.08          92.88          61.53          118.2          126.7          27.66
    0.2204              -51.27          28.93          29.61          67.75          5.861         -3.079           92.9          61.51          118.2          126.7          27.69
    0.2448              -51.27          28.93           29.6          67.75          5.859         -3.079          92.93          61.49          118.2          126.7          27.72
    0.2693              -51.26          28.94           29.6          67.75          5.856         -3.079          92.95          61.47          118.2          126.7          27.76
    0.2938              -51.25          28.94          29.59          67.74          5.853         -3.078          92.97          61.44          118.2          126.7           27.8
    0.3183              -51.25          28.94          29.58          67.74          5.849         -3.078           93.0          61.41          118.2          126.6          27.84
    0.3428              -51.24          28.95          29.57          67.74          5.846         -3.078          93.03          61.39          118.3          126.6          27.88
    0.3673              -51.23          28.95          29.56          67.73          5.842         -3.077          93.06          61.36          118.3          126.6          27.93
    0.3918              -51.22          28.95          29.55          67.73          5.837         -3.077           93.1          61.32          118.3          126.6          27.99
    0.4162              -51.21          28.96          29.54          67.72          5.833         -3.076          93.13          61.29          118.3          126.5          28.05
    0.4407               -51.2          28.96          29.53          67.72          5.828         -3.075          93.17          61.25          118.4          126.5          28.11
    0.4652              -51.19          28.97          29.52          67.71          5.822         -3.075          93.22           61.2          118.4          126.5          28.18
    0.4897              -51.18          28.97           29.5           67.7          5.816         -3.074          93.27          61.15          118.4          126.4          28.26
    0.5142              -51.17          28.98          29.48           67.7          5.809         -3.073          93.32           61.1          118.5          126.4          28.34
    0.5387              -51.15          28.98          29.47          67.69          5.802         -3.072          93.38          61.04          118.5          126.3          28.43
    0.5631              -51.13          28.99          29.45          67.68          5.793         -3.071          93.45          60.98          118.5          126.3          28.54
    0.5876              -51.11           29.0          29.42          67.67          5.784          -3.07          93.52          60.91          118.6          126.2          28.65
    0.6121              -51.09          29.01           29.4          67.66          5.774         -3.069           93.6          60.83          118.7          126.1          28.78
    0.6366              -51.07          29.02          29.37          67.64          5.762         -3.068          93.69          60.74          118.7          126.1          28.92
    0.6611              -51.04          29.03          29.34          67.63           5.75         -3.066           93.8          60.64          118.8          126.0          29.08
    0.6856              -51.01          29.04          29.31          67.61          5.735         -3.065          93.91          60.52          118.9          125.9          29.27
    0.7101              -50.98          29.05          29.27           67.6          5.718         -3.063          94.05          60.39          119.0          125.8          29.47
    0.7345              -50.94          29.07          29.22          67.58          5.699          -3.06           94.2          60.24          119.1          125.7          29.71
     0.759               -50.9          29.09          29.17          67.55          5.678         -3.058          94.37          60.08          119.2          125.5          29.98
